<svg xmlns="http://www.w3.org/2000/svg" version="1.1" xmlns:xlink="http://www.w3.org/1999/xlink" xmlns:svgjs="http://svgjs.com/svgjs" width="1440" height="560" preserveAspectRatio="none" viewBox="0 0 1440 560"><g mask="url(&quot;#SvgjsMask1000&quot;)" fill="none"><rect width="1440" height="560" x="0" y="0" fill="rgba(21, 140, 186, 1)"></rect><path d="M0 0L58.42 0L0 182.88z" fill="rgba(255, 255, 255, .1)"></path><path d="M0 182.88L58.42 0L785 0L0 352.6z" fill="rgba(255, 255, 255, .075)"></path><path d="M0 352.6L785 0L1138.23 0L0 410.66z" fill="rgba(255, 255, 255, .05)"></path><path d="M0 410.66L1138.23 0L1151.74 0L0 488.21000000000004z" fill="rgba(255, 255, 255, .025)"></path><path d="M1440 560L1023.3199999999999 560L1440 361.91999999999996z" fill="rgba(0, 0, 0, .1)"></path><path d="M1440 361.91999999999996L1023.3199999999999 560L573.3599999999999 560L1440 261.91999999999996z" fill="rgba(0, 0, 0, .075)"></path><path d="M1440 261.91999999999996L573.36 560L322.9 560L1440 103.03999999999996z" fill="rgba(0, 0, 0, .05)"></path><path d="M1440 103.03999999999996L322.9000000000001 560L229.50000000000009 560L1440 58.749999999999964z" fill="rgba(0, 0, 0, .025)"></path></g><defs><mask id="SvgjsMask1000"><rect width="1440" height="560" fill="#ffffff"></rect></mask></defs></svg>